<?xml version="1.0" encoding="UTF-8" standalone="no"?>
<svg
   xmlns:dc="http://purl.org/dc/elements/1.1/"
   xmlns:cc="http://creativecommons.org/ns#"
   xmlns:rdf="http://www.w3.org/1999/02/22-rdf-syntax-ns#"
   xmlns:svg="http://www.w3.org/2000/svg"
   xmlns="http://www.w3.org/2000/svg"
   xmlns:sodipodi="http://sodipodi.sourceforge.net/DTD/sodipodi-0.dtd"
   xmlns:inkscape="http://www.inkscape.org/namespaces/inkscape"
   inkscape:version="1.0 (4035a4fb49, 2020-05-01)"
   sodipodi:docname="TIKZ_tetra_Configurations_20201005.svg"
   viewBox="0 0 155.10268 654.03064"
   height="654.03064"
   width="155.10268"
   xml:space="preserve"
   id="svg833"
   version="1.1"><metadata
     id="metadata839"><rdf:RDF><cc:Work
         rdf:about=""><dc:format>image/svg+xml</dc:format><dc:type
           rdf:resource="http://purl.org/dc/dcmitype/StillImage" /><dc:title></dc:title></cc:Work></rdf:RDF></metadata><defs
     id="defs837" /><sodipodi:namedview
     inkscape:current-layer="g841"
     inkscape:window-maximized="0"
     inkscape:window-y="0"
     inkscape:window-x="0"
     inkscape:cy="327.01532"
     inkscape:cx="77.551338"
     inkscape:zoom="1.2996333"
     showgrid="false"
     id="namedview835"
     inkscape:window-height="480"
     inkscape:window-width="837"
     inkscape:pageshadow="2"
     inkscape:pageopacity="0"
     guidetolerance="10"
     gridtolerance="10"
     objecttolerance="10"
     borderopacity="1"
     bordercolor="#666666"
     pagecolor="#ffffff" /><g
     transform="matrix(1.3333333,0,0,-1.3333333,0,654.03067)"
     inkscape:label="TIKZ_tetra_Configurations_20201005"
     inkscape:groupmode="layer"
     id="g841"><g
       transform="translate(58.164,245.262)"
       id="g843"><g
         id="g845"><g
           id="g847"><g
             id="g849" /><g
             id="g851" /><g
             id="g853" /><g
             id="g855" /><g
             id="g857" /><g
             id="g859" /><g
             id="g861" /><g
             id="g863" /><g
             id="g865" /><g
             id="g867" /><g
             id="g869" /><g
             id="g871" /><g
             id="g873" /><g
             id="g875" /><g
             id="g877" /><g
             id="g879" /><g
             id="g881" /><g
             id="g883" /><g
             id="g885"><g
               transform="translate(-54.843,-199.223)"
               id="g887"><g
                 transform="translate(33.583,398.445)"
                 id="g889"><g
                   id="g891"><g
                     id="g893"><path
                       id="path895"
                       style="fill:#000000;fill-opacity:1;fill-rule:nonzero;stroke:#000000;stroke-width:0.3985;stroke-linecap:butt;stroke-linejoin:miter;stroke-miterlimit:10;stroke-dasharray:none;stroke-opacity:1"
                       d="m -19.76569,-21.2601 c 0,0.82535 -0.66906,1.49441 -1.49441,1.49441 -0.82535,0 -1.49442,-0.66906 -1.49442,-1.49441 0,-0.82535 0.66907,-1.49442 1.49442,-1.49442 0.82535,0 1.49441,0.66907 1.49441,1.49442 z m 21.26011,5.31505 c 0,0.82533 -0.66909,1.49441 -1.49442,1.49441 -0.82533,0 -1.49442,-0.66908 -1.49442,-1.49441 0,-0.82535 0.66909,-1.49442 1.49442,-1.49442 0.82533,0 1.49442,0.66907 1.49442,1.49442 z M -9.13562,21.2601 c 0,0.82535 -0.66907,1.49442 -1.49442,1.49442 -0.82534,0 -1.49441,-0.66907 -1.49441,-1.49442 0,-0.82535 0.66907,-1.49441 1.49441,-1.49441 0.82535,0 1.49442,0.66906 1.49442,1.49441 z M -30.39572,0 c 0,0.82533 -0.66907,1.49442 -1.49442,1.49442 -0.82534,0 -1.49441,-0.66909 -1.49441,-1.49442 0,-0.82533 0.66907,-1.49442 1.49441,-1.49442 0.82535,0 1.49442,0.66909 1.49442,1.49442 z" /></g><g
                     id="g897"><path
                       id="path899"
                       style="fill:#0000ff;fill-opacity:0.2;fill-rule:nonzero;stroke:#0000ff;stroke-width:0.3985;stroke-linecap:butt;stroke-linejoin:miter;stroke-miterlimit:10;stroke-dasharray:none;stroke-opacity:1"
                       d="M 0,-42.5202 V 42.5202 L 42.5202,21.2601 v -42.5202 z" /></g><g
                     id="g901" /><g
                     id="g903"><path
                       id="path905"
                       style="fill:#000000;fill-opacity:0.2;fill-rule:nonzero;stroke:#000000;stroke-width:0.3985;stroke-linecap:butt;stroke-linejoin:miter;stroke-miterlimit:10;stroke-dasharray:none;stroke-opacity:1"
                       d="M -21.2601,-21.2601 -31.89014,0 l 21.2601,21.2601 z" /></g><g
                     id="g907"><path
                       id="path909"
                       style="fill:#000000;fill-opacity:0.2;fill-rule:nonzero;stroke:#000000;stroke-width:0.3985;stroke-linecap:butt;stroke-linejoin:miter;stroke-miterlimit:10;stroke-dasharray:none;stroke-opacity:1"
                       d="M -21.2601,-21.2601 -31.89014,0 0,-15.94505 Z" /></g><g
                     id="g911"><path
                       id="path913"
                       style="fill:#000000;fill-opacity:0.2;fill-rule:nonzero;stroke:#000000;stroke-width:0.3985;stroke-linecap:butt;stroke-linejoin:miter;stroke-miterlimit:10;stroke-dasharray:none;stroke-opacity:1"
                       d="M -21.2601,-21.2601 -10.63004,21.2601 0,-15.94505 Z" /></g></g><g
                   transform="translate(0,-99.611)"
                   id="g915"><g
                     id="g917"><g
                       id="g919"><path
                         id="path921"
                         style="fill:#000000;fill-opacity:1;fill-rule:nonzero;stroke:#000000;stroke-width:0.3985;stroke-linecap:butt;stroke-linejoin:miter;stroke-miterlimit:10;stroke-dasharray:none;stroke-opacity:1"
                         d="m -19.76569,-21.2601 c 0,0.82535 -0.66906,1.49441 -1.49441,1.49441 -0.82535,0 -1.49442,-0.66906 -1.49442,-1.49441 0,-0.82535 0.66907,-1.49442 1.49442,-1.49442 0.82535,0 1.49441,0.66907 1.49441,1.49442 z m 21.26011,5.31505 c 0,0.82533 -0.66909,1.49441 -1.49442,1.49441 -0.82533,0 -1.49442,-0.66908 -1.49442,-1.49441 0,-0.82535 0.66909,-1.49442 1.49442,-1.49442 0.82533,0 1.49442,0.66907 1.49442,1.49442 z M -9.13562,21.2601 c 0,0.82535 -0.66907,1.49442 -1.49442,1.49442 -0.82534,0 -1.49441,-0.66907 -1.49441,-1.49442 0,-0.82535 0.66907,-1.49441 1.49441,-1.49441 0.82535,0 1.49442,0.66906 1.49442,1.49441 z" /></g><g
                       id="g923"><path
                         id="path925"
                         style="fill:#0000ff;fill-opacity:0.2;fill-rule:nonzero;stroke:#0000ff;stroke-width:0.3985;stroke-linecap:butt;stroke-linejoin:miter;stroke-miterlimit:10;stroke-dasharray:none;stroke-opacity:1"
                         d="M 0,-42.5202 V 42.5202 L 42.5202,21.2601 v -42.5202 z" /></g><g
                       id="g927"><path
                         id="path929"
                         style="fill:#000000;fill-opacity:1;fill-rule:nonzero;stroke:#000000;stroke-width:0.3985;stroke-linecap:butt;stroke-linejoin:miter;stroke-miterlimit:10;stroke-dasharray:none;stroke-opacity:1"
                         d="m 44.01462,-21.2601 c 0,0.82535 -0.66907,1.49441 -1.49442,1.49441 -0.82535,0 -1.49441,-0.66906 -1.49441,-1.49441 0,-0.82535 0.66906,-1.49442 1.49441,-1.49442 0.82535,0 1.49442,0.66907 1.49442,1.49442 z" /></g><g
                       id="g931"><path
                         id="path933"
                         style="fill:#000000;fill-opacity:0.2;fill-rule:nonzero;stroke:#000000;stroke-width:0.3985;stroke-linecap:butt;stroke-linejoin:miter;stroke-miterlimit:10;stroke-dasharray:none;stroke-opacity:1"
                         d="M -21.2601,-21.2601 0,-15.94505 -10.63004,21.2601 Z" /></g><g
                       id="g935"><path
                         id="path937"
                         style="fill:#000000;fill-opacity:0.2;fill-rule:nonzero;stroke:#000000;stroke-width:0.3985;stroke-linecap:butt;stroke-linejoin:miter;stroke-miterlimit:10;stroke-dasharray:none;stroke-opacity:1"
                         d="M -21.2601,-21.2601 0,-15.94505 42.5202,-21.2601 Z" /></g><g
                       id="g939"><path
                         id="path941"
                         style="fill:#000000;fill-opacity:0.2;fill-rule:nonzero;stroke:#000000;stroke-width:0.3985;stroke-linecap:butt;stroke-linejoin:miter;stroke-miterlimit:10;stroke-dasharray:none;stroke-opacity:1"
                         d="M -21.2601,-21.2601 -10.63004,21.2601 42.5202,-21.2601 Z" /></g><g
                       id="g943"><path
                         id="path945"
                         style="fill:#0000ff;fill-opacity:0.4;fill-rule:nonzero;stroke:#0000ff;stroke-width:0.3985;stroke-linecap:butt;stroke-linejoin:miter;stroke-miterlimit:10;stroke-dasharray:none;stroke-opacity:1"
                         d="M 10.63037,-21.26071 21.26073,-18.60312 15.94556,0 v 0 z" /></g></g><g
                     transform="translate(0,-99.611)"
                     id="g947"><g
                       id="g949"><g
                         id="g951"><path
                           id="path953"
                           style="fill:#000000;fill-opacity:1;fill-rule:nonzero;stroke:#000000;stroke-width:0.3985;stroke-linecap:butt;stroke-linejoin:miter;stroke-miterlimit:10;stroke-dasharray:none;stroke-opacity:1"
                           d="m -19.76569,-21.2601 c 0,0.82535 -0.66906,1.49441 -1.49441,1.49441 -0.82535,0 -1.49442,-0.66906 -1.49442,-1.49441 0,-0.82535 0.66907,-1.49442 1.49442,-1.49442 0.82535,0 1.49441,0.66907 1.49441,1.49442 z m 21.26011,5.31505 c 0,0.82533 -0.66909,1.49441 -1.49442,1.49441 -0.82533,0 -1.49442,-0.66908 -1.49442,-1.49441 0,-0.82535 0.66909,-1.49442 1.49442,-1.49442 0.82533,0 1.49442,0.66907 1.49442,1.49442 z" /></g><g
                         id="g955"><path
                           id="path957"
                           style="fill:#0000ff;fill-opacity:0.2;fill-rule:nonzero;stroke:#0000ff;stroke-width:0.3985;stroke-linecap:butt;stroke-linejoin:miter;stroke-miterlimit:10;stroke-dasharray:none;stroke-opacity:1"
                           d="M 0,-42.5202 V 42.5202 L 42.5202,21.2601 v -42.5202 z" /></g><g
                         id="g959"><path
                           id="path961"
                           style="fill:#000000;fill-opacity:1;fill-rule:nonzero;stroke:#000000;stroke-width:0.3985;stroke-linecap:butt;stroke-linejoin:miter;stroke-miterlimit:10;stroke-dasharray:none;stroke-opacity:1"
                           d="m 54.64465,21.2601 c 0,0.82535 -0.66906,1.49442 -1.49441,1.49442 -0.82534,0 -1.49442,-0.66907 -1.49442,-1.49442 0,-0.82535 0.66908,-1.49441 1.49442,-1.49441 0.82535,0 1.49441,0.66906 1.49441,1.49441 z M 44.01462,-21.2601 c 0,0.82535 -0.66907,1.49441 -1.49442,1.49441 -0.82535,0 -1.49441,-0.66906 -1.49441,-1.49441 0,-0.82535 0.66906,-1.49442 1.49441,-1.49442 0.82535,0 1.49442,0.66907 1.49442,1.49442 z" /></g><g
                         id="g963"><path
                           id="path965"
                           style="fill:#000000;fill-opacity:0.2;fill-rule:nonzero;stroke:#000000;stroke-width:0.3985;stroke-linecap:butt;stroke-linejoin:miter;stroke-miterlimit:10;stroke-dasharray:none;stroke-opacity:1"
                           d="M -21.2601,-21.2601 0,-15.94505 53.15024,21.2601 Z" /></g><g
                         id="g967"><path
                           id="path969"
                           style="fill:#000000;fill-opacity:0.2;fill-rule:nonzero;stroke:#000000;stroke-width:0.3985;stroke-linecap:butt;stroke-linejoin:miter;stroke-miterlimit:10;stroke-dasharray:none;stroke-opacity:1"
                           d="M -21.2601,-21.2601 0,-15.94505 42.5202,-21.2601 Z" /></g><g
                         id="g971"><path
                           id="path973"
                           style="fill:#000000;fill-opacity:0.2;fill-rule:nonzero;stroke:#000000;stroke-width:0.3985;stroke-linecap:butt;stroke-linejoin:miter;stroke-miterlimit:10;stroke-dasharray:none;stroke-opacity:1"
                           d="M -21.2601,-21.2601 53.15024,21.2601 42.5202,-21.2601 Z" /></g><g
                         id="g975"><path
                           id="path977"
                           style="fill:#0000ff;fill-opacity:0.4;fill-rule:nonzero;stroke:#0000ff;stroke-width:0.3985;stroke-linecap:butt;stroke-linejoin:miter;stroke-miterlimit:10;stroke-dasharray:none;stroke-opacity:1"
                           d="M 10.63037,-21.26071 21.26073,-18.60312 26.57593,2.6576 15.94556,0 Z" /></g></g><g
                       transform="translate(0,-99.612)"
                       id="g979"><g
                         id="g981"><g
                           id="g983"><path
                             id="path985"
                             style="fill:#000000;fill-opacity:1;fill-rule:nonzero;stroke:#000000;stroke-width:0.3985;stroke-linecap:butt;stroke-linejoin:miter;stroke-miterlimit:10;stroke-dasharray:none;stroke-opacity:1"
                             d="m -19.76569,-21.2601 c 0,0.82535 -0.66906,1.49441 -1.49441,1.49441 -0.82535,0 -1.49442,-0.66906 -1.49442,-1.49441 0,-0.82535 0.66907,-1.49442 1.49442,-1.49442 0.82535,0 1.49441,0.66907 1.49441,1.49442 z" /></g><g
                           id="g987"><path
                             id="path989"
                             style="fill:#0000ff;fill-opacity:0.2;fill-rule:nonzero;stroke:#0000ff;stroke-width:0.3985;stroke-linecap:butt;stroke-linejoin:miter;stroke-miterlimit:10;stroke-dasharray:none;stroke-opacity:1"
                             d="M 0,-42.5202 V 42.5202 L 42.5202,21.2601 v -42.5202 z" /></g><g
                           id="g991"><path
                             id="path993"
                             style="fill:#000000;fill-opacity:1;fill-rule:nonzero;stroke:#000000;stroke-width:0.3985;stroke-linecap:butt;stroke-linejoin:miter;stroke-miterlimit:10;stroke-dasharray:none;stroke-opacity:1"
                             d="m 65.27472,-15.94505 c 0,0.82533 -0.66907,1.49441 -1.49442,1.49441 -0.82534,0 -1.49441,-0.66908 -1.49441,-1.49441 0,-0.82535 0.66907,-1.49442 1.49441,-1.49442 0.82535,0 1.49442,0.66907 1.49442,1.49442 z M 54.64465,21.2601 c 0,0.82535 -0.66906,1.49442 -1.49441,1.49442 -0.82534,0 -1.49442,-0.66907 -1.49442,-1.49442 0,-0.82535 0.66908,-1.49441 1.49442,-1.49441 0.82535,0 1.49441,0.66906 1.49441,1.49441 z M 44.01462,-21.2601 c 0,0.82535 -0.66907,1.49441 -1.49442,1.49441 -0.82535,0 -1.49441,-0.66906 -1.49441,-1.49441 0,-0.82535 0.66906,-1.49442 1.49441,-1.49442 0.82535,0 1.49442,0.66907 1.49442,1.49442 z" /></g><g
                           id="g995"><path
                             id="path997"
                             style="fill:#000000;fill-opacity:0.2;fill-rule:nonzero;stroke:#000000;stroke-width:0.3985;stroke-linecap:butt;stroke-linejoin:miter;stroke-miterlimit:10;stroke-dasharray:none;stroke-opacity:1"
                             d="M -21.2601,-21.2601 63.7803,-15.94505 53.15024,21.2601 Z" /></g><g
                           id="g999"><path
                             id="path1001"
                             style="fill:#000000;fill-opacity:0.2;fill-rule:nonzero;stroke:#000000;stroke-width:0.3985;stroke-linecap:butt;stroke-linejoin:miter;stroke-miterlimit:10;stroke-dasharray:none;stroke-opacity:1"
                             d="m -21.2601,-21.2601 85.0404,5.31505 -21.2601,-5.31505 z" /></g><g
                           id="g1003"><path
                             id="path1005"
                             style="fill:#000000;fill-opacity:0.2;fill-rule:nonzero;stroke:#000000;stroke-width:0.3985;stroke-linecap:butt;stroke-linejoin:miter;stroke-miterlimit:10;stroke-dasharray:none;stroke-opacity:1"
                             d="M -21.2601,-21.2601 53.15024,21.2601 42.5202,-21.2601 Z" /></g><g
                           id="g1007"><path
                             id="path1009"
                             style="fill:#0000ff;fill-opacity:0.4;fill-rule:nonzero;stroke:#0000ff;stroke-width:0.3985;stroke-linecap:butt;stroke-linejoin:miter;stroke-miterlimit:10;stroke-dasharray:none;stroke-opacity:1"
                             d="M 10.63037,-21.26071 15.94556,0 21.26074,-18.60312 v 0 z" /></g></g><g
                         transform="translate(0,-99.611)"
                         id="g1011"><g
                           id="g1013"><g
                             id="g1015" /><g
                             id="g1017"><path
                               id="path1019"
                               style="fill:#0000ff;fill-opacity:0.2;fill-rule:nonzero;stroke:#0000ff;stroke-width:0.3985;stroke-linecap:butt;stroke-linejoin:miter;stroke-miterlimit:10;stroke-dasharray:none;stroke-opacity:1"
                               d="M 0,-42.5202 V 42.5202 L 42.5202,21.2601 v -42.5202 z" /></g><g
                             id="g1021"><path
                               id="path1023"
                               style="fill:#000000;fill-opacity:1;fill-rule:nonzero;stroke:#000000;stroke-width:0.3985;stroke-linecap:butt;stroke-linejoin:miter;stroke-miterlimit:10;stroke-dasharray:none;stroke-opacity:1"
                               d="m 75.90479,0 c 0,0.82533 -0.66909,1.49442 -1.49442,1.49442 -0.82535,0 -1.49442,-0.66909 -1.49442,-1.49442 0,-0.82533 0.66907,-1.49442 1.49442,-1.49442 0.82533,0 1.49442,0.66909 1.49442,1.49442 z M 65.27472,-15.94505 c 0,0.82533 -0.66907,1.49441 -1.49442,1.49441 -0.82534,0 -1.49441,-0.66908 -1.49441,-1.49441 0,-0.82535 0.66907,-1.49442 1.49441,-1.49442 0.82535,0 1.49442,0.66907 1.49442,1.49442 z M 54.64465,21.2601 c 0,0.82535 -0.66906,1.49442 -1.49441,1.49442 -0.82534,0 -1.49442,-0.66907 -1.49442,-1.49442 0,-0.82535 0.66908,-1.49441 1.49442,-1.49441 0.82535,0 1.49441,0.66906 1.49441,1.49441 z M 44.01462,-21.2601 c 0,0.82535 -0.66907,1.49441 -1.49442,1.49441 -0.82535,0 -1.49441,-0.66906 -1.49441,-1.49441 0,-0.82535 0.66906,-1.49442 1.49441,-1.49442 0.82535,0 1.49442,0.66907 1.49442,1.49442 z" /></g><g
                             id="g1025"><path
                               id="path1027"
                               style="fill:#000000;fill-opacity:0.2;fill-rule:nonzero;stroke:#000000;stroke-width:0.3985;stroke-linecap:butt;stroke-linejoin:miter;stroke-miterlimit:10;stroke-dasharray:none;stroke-opacity:1"
                               d="M 74.41037,0 63.7803,-15.94505 53.15024,21.2601 Z" /></g><g
                             id="g1029"><path
                               id="path1031"
                               style="fill:#000000;fill-opacity:0.2;fill-rule:nonzero;stroke:#000000;stroke-width:0.3985;stroke-linecap:butt;stroke-linejoin:miter;stroke-miterlimit:10;stroke-dasharray:none;stroke-opacity:1"
                               d="M 74.41037,0 63.7803,-15.94505 42.5202,-21.2601 Z" /></g><g
                             id="g1033"><path
                               id="path1035"
                               style="fill:#000000;fill-opacity:0.2;fill-rule:nonzero;stroke:#000000;stroke-width:0.3985;stroke-linecap:butt;stroke-linejoin:miter;stroke-miterlimit:10;stroke-dasharray:none;stroke-opacity:1"
                               d="M 74.41037,0 53.15024,21.2601 42.5202,-21.2601 Z" /></g></g><g
                           transform="translate(-33.583)"
                           id="g1037" /></g></g></g></g></g><g
                 transform="translate(54.843,199.222)"
                 id="g1039" /></g></g></g></g></g></g></svg>
