<?xml version="1.0" encoding="UTF-8" standalone="no"?>
<svg
   xmlns:dc="http://purl.org/dc/elements/1.1/"
   xmlns:cc="http://creativecommons.org/ns#"
   xmlns:rdf="http://www.w3.org/1999/02/22-rdf-syntax-ns#"
   xmlns:svg="http://www.w3.org/2000/svg"
   xmlns="http://www.w3.org/2000/svg"
   xmlns:sodipodi="http://sodipodi.sourceforge.net/DTD/sodipodi-0.dtd"
   xmlns:inkscape="http://www.inkscape.org/namespaces/inkscape"
   inkscape:version="1.0 (4035a4fb49, 2020-05-01)"
   sodipodi:docname="TIKZ_provably_TriangleConditions_20200926.svg"
   viewBox="0 0 91.547997 91.813332"
   height="91.813332"
   width="91.547997"
   xml:space="preserve"
   id="svg833"
   version="1.1"><metadata
     id="metadata839"><rdf:RDF><cc:Work
         rdf:about=""><dc:format>image/svg+xml</dc:format><dc:type
           rdf:resource="http://purl.org/dc/dcmitype/StillImage" /><dc:title></dc:title></cc:Work></rdf:RDF></metadata><defs
     id="defs837" /><sodipodi:namedview
     inkscape:current-layer="g841"
     inkscape:window-maximized="1"
     inkscape:window-y="-8"
     inkscape:window-x="-8"
     inkscape:cy="41.828057"
     inkscape:cx="45.773998"
     inkscape:zoom="8"
     showgrid="false"
     id="namedview835"
     inkscape:window-height="1017"
     inkscape:window-width="1920"
     inkscape:pageshadow="2"
     inkscape:pageopacity="0"
     guidetolerance="10"
     gridtolerance="10"
     objecttolerance="10"
     borderopacity="1"
     bordercolor="#666666"
     pagecolor="#ffffff" /><g
     transform="matrix(1.3333333,0,0,-1.3333333,0,91.813333)"
     inkscape:label="TIKZ_provably_TriangleConditions_20200926"
     inkscape:groupmode="layer"
     id="g841"><g
       transform="translate(2.441,2.441)"
       id="g843"><g
         id="g845"><g
           id="g847"><g
             id="g849"><path
               id="path851"
               style="fill:#ff0000;fill-opacity:1;fill-rule:nonzero;stroke:#ff0000;stroke-width:0.3985;stroke-linecap:butt;stroke-linejoin:miter;stroke-miterlimit:10;stroke-dasharray:none;stroke-opacity:1"
               d="M 2.24162,0 C 2.24162,1.238 1.238,2.24162 0,2.24162 -1.238,2.24162 -2.24162,1.238 -2.24162,0 -2.24162,-1.238 -1.238,-2.24162 0,-2.24162 1.238,-2.24162 2.24162,-1.238 2.24162,0 Z" /></g><g
             id="g853"><path
               id="path855"
               style="fill:#ff0000;fill-opacity:1;fill-rule:nonzero;stroke:#ff0000;stroke-width:0.3985;stroke-linecap:butt;stroke-linejoin:miter;stroke-miterlimit:10;stroke-dasharray:none;stroke-opacity:1"
               d="m 66.02193,0 c 0,1.238 -1.0036,2.24162 -2.24163,2.24162 -1.23802,0 -2.24162,-1.00362 -2.24162,-2.24162 0,-1.238 1.0036,-2.24162 2.24162,-2.24162 1.23803,0 2.24163,1.00362 2.24163,2.24162 z" /></g><g
             id="g857"><path
               id="path859"
               style="fill:#ff0000;fill-opacity:1;fill-rule:nonzero;stroke:#ff0000;stroke-width:0.3985;stroke-linecap:butt;stroke-linejoin:miter;stroke-miterlimit:10;stroke-dasharray:none;stroke-opacity:1"
               d="m 2.24162,63.7803 c 0,1.23803 -1.00362,2.24163 -2.24162,2.24163 -1.238,0 -2.24162,-1.0036 -2.24162,-2.24163 0,-1.23802 1.00362,-2.24162 2.24162,-2.24162 1.238,0 2.24162,1.0036 2.24162,2.24162 z" /></g><g
             id="g861"><path
               id="path863"
               style="fill:none;stroke:#ff0000;stroke-width:0.79701;stroke-linecap:butt;stroke-linejoin:miter;stroke-miterlimit:10;stroke-dasharray:none;stroke-opacity:1"
               d="M 0,0 H 63.7803 L 0,63.7803 Z" /></g><g
             id="g865"><path
               id="path867"
               style="fill:none;stroke:#0000ff;stroke-width:0.79701;stroke-linecap:butt;stroke-linejoin:miter;stroke-miterlimit:10;stroke-dasharray:none;stroke-opacity:1"
               d="M 21.2601,21.2601 H 42.5202 L 63.7803,42.5202 42.5202,63.7803 21.2601,42.5202 Z" /></g><g
             id="g869"><path
               id="path871"
               style="fill:#ff0000;fill-opacity:1;fill-rule:nonzero;stroke:#ff0000;stroke-width:0.3985;stroke-linecap:butt;stroke-linejoin:miter;stroke-miterlimit:10;stroke-dasharray:none;stroke-opacity:1"
               d="m 23.50172,21.2601 c 0,1.23801 -1.00361,2.24162 -2.24162,2.24162 -1.23802,0 -2.24162,-1.00361 -2.24162,-2.24162 0,-1.23802 1.0036,-2.24162 2.24162,-2.24162 1.23801,0 2.24162,1.0036 2.24162,2.24162 z" /></g><g
             id="g873"><path
               id="path875"
               style="fill:#ff0000;fill-opacity:1;fill-rule:nonzero;stroke:#ff0000;stroke-width:0.3985;stroke-linecap:butt;stroke-linejoin:miter;stroke-miterlimit:10;stroke-dasharray:none;stroke-opacity:1"
               d="m 66.02193,42.5202 c 0,1.23802 -1.0036,2.24163 -2.24163,2.24163 -1.23802,0 -2.24162,-1.00361 -2.24162,-2.24163 0,-1.23802 1.0036,-2.24162 2.24162,-2.24162 1.23803,0 2.24163,1.0036 2.24163,2.24162 z" /></g><g
             id="g877"><path
               id="path879"
               style="fill:#ff0000;fill-opacity:1;fill-rule:nonzero;stroke:#ff0000;stroke-width:0.3985;stroke-linecap:butt;stroke-linejoin:miter;stroke-miterlimit:10;stroke-dasharray:none;stroke-opacity:1"
               d="m 44.76183,63.7803 c 0,1.23803 -1.00361,2.24163 -2.24163,2.24163 -1.23802,0 -2.24162,-1.0036 -2.24162,-2.24163 0,-1.23802 1.0036,-2.24162 2.24162,-2.24162 1.23802,0 2.24163,1.0036 2.24163,2.24162 z" /></g><g
             id="g881"><path
               id="path883"
               style="fill:#0000ff;fill-opacity:1;fill-rule:nonzero;stroke:#0000ff;stroke-width:0.3985;stroke-linecap:butt;stroke-linejoin:miter;stroke-miterlimit:10;stroke-dasharray:none;stroke-opacity:1"
               d="m 44.76183,21.2601 c 0,1.23801 -1.00361,2.24162 -2.24163,2.24162 -1.23802,0 -2.24162,-1.00361 -2.24162,-2.24162 0,-1.23802 1.0036,-2.24162 2.24162,-2.24162 1.23802,0 2.24163,1.0036 2.24163,2.24162 z" /></g><g
             id="g885"><path
               id="path887"
               style="fill:#0000ff;fill-opacity:1;fill-rule:nonzero;stroke:#0000ff;stroke-width:0.3985;stroke-linecap:butt;stroke-linejoin:miter;stroke-miterlimit:10;stroke-dasharray:none;stroke-opacity:1"
               d="m 23.50172,42.5202 c 0,1.23802 -1.00361,2.24163 -2.24162,2.24163 -1.23802,0 -2.24162,-1.00361 -2.24162,-2.24163 0,-1.23802 1.0036,-2.24162 2.24162,-2.24162 1.23801,0 2.24162,1.0036 2.24162,2.24162 z" /></g><g
             id="g889"><path
               id="path891"
               style="fill:none;stroke:#000000;stroke-width:0.79701;stroke-linecap:butt;stroke-linejoin:miter;stroke-miterlimit:10;stroke-dasharray:none;stroke-opacity:1"
               d="M 10.63004,31.89014 26.57512,26.57512 42.5202,42.5202 21.2601,63.7803 Z" /></g><g
             id="g893"><path
               id="path895"
               style="fill:none;stroke:#ff0000;stroke-width:0.79701;stroke-linecap:butt;stroke-linejoin:miter;stroke-miterlimit:10;stroke-dasharray:none;stroke-opacity:1"
               d="m 12.87166,31.89014 c 0,1.23802 -1.0036,2.24162 -2.24162,2.24162 -1.23803,0 -2.24163,-1.0036 -2.24163,-2.24162 0,-1.23803 1.0036,-2.24163 2.24163,-2.24163 1.23802,0 2.24162,1.0036 2.24162,2.24163 z" /></g><g
             id="g897"><path
               id="path899"
               style="fill:none;stroke:#0000ff;stroke-width:0.79701;stroke-linecap:butt;stroke-linejoin:miter;stroke-miterlimit:10;stroke-dasharray:none;stroke-opacity:1"
               d="m 28.81674,26.57512 c 0,1.23802 -1.0036,2.24162 -2.24162,2.24162 -1.23802,0 -2.24162,-1.0036 -2.24162,-2.24162 0,-1.23802 1.0036,-2.24162 2.24162,-2.24162 1.23802,0 2.24162,1.0036 2.24162,2.24162 z" /></g><g
             id="g901"><path
               id="path903"
               style="fill:none;stroke:#ff0000;stroke-width:0.79701;stroke-linecap:butt;stroke-linejoin:miter;stroke-miterlimit:10;stroke-dasharray:none;stroke-opacity:1"
               d="m 44.76183,42.5202 c 0,1.23802 -1.00361,2.24163 -2.24163,2.24163 -1.23802,0 -2.24162,-1.00361 -2.24162,-2.24163 0,-1.23802 1.0036,-2.24162 2.24162,-2.24162 1.23802,0 2.24163,1.0036 2.24163,2.24162 z" /></g><g
             id="g905"><path
               id="path907"
               style="fill:none;stroke:#000000;stroke-width:0.79701;stroke-linecap:butt;stroke-linejoin:miter;stroke-miterlimit:10;stroke-dasharray:none;stroke-opacity:1"
               d="m 23.50172,63.7803 c 0,1.23803 -1.00361,2.24163 -2.24162,2.24163 -1.23802,0 -2.24162,-1.0036 -2.24162,-2.24163 0,-1.23802 1.0036,-2.24162 2.24162,-2.24162 1.23801,0 2.24162,1.0036 2.24162,2.24162 z" /></g></g></g></g></g></svg>
