<?xml version="1.0" encoding="UTF-8" standalone="no"?>
<svg
   xmlns:dc="http://purl.org/dc/elements/1.1/"
   xmlns:cc="http://creativecommons.org/ns#"
   xmlns:rdf="http://www.w3.org/1999/02/22-rdf-syntax-ns#"
   xmlns:svg="http://www.w3.org/2000/svg"
   xmlns="http://www.w3.org/2000/svg"
   xmlns:sodipodi="http://sodipodi.sourceforge.net/DTD/sodipodi-0.dtd"
   xmlns:inkscape="http://www.inkscape.org/namespaces/inkscape"
   version="1.1"
   id="Calque_1"
   x="0px"
   y="0px"
   width="163.7"
   height="47.200001"
   viewBox="0 0 163.7 47.199999"
   enable-background="new 0 0 163.7 47.2"
   xml:space="preserve"
   sodipodi:docname="unige_logo.svg"
   inkscape:version="1.0 (4035a4fb49, 2020-05-01)"><metadata
   id="metadata137"><rdf:RDF><cc:Work
       rdf:about=""><dc:format>image/svg+xml</dc:format><dc:type
         rdf:resource="http://purl.org/dc/dcmitype/StillImage" /><dc:title></dc:title></cc:Work></rdf:RDF></metadata><defs
   id="defs135" /><sodipodi:namedview
   inkscape:document-rotation="0"
   pagecolor="#ffffff"
   bordercolor="#666666"
   borderopacity="1"
   objecttolerance="10"
   gridtolerance="10"
   guidetolerance="10"
   inkscape:pageopacity="0"
   inkscape:pageshadow="2"
   inkscape:window-width="1920"
   inkscape:window-height="1017"
   id="namedview133"
   showgrid="false"
   fit-margin-top="0"
   fit-margin-left="0"
   fit-margin-right="0"
   fit-margin-bottom="0"
   inkscape:zoom="6.4080637"
   inkscape:cx="91.455526"
   inkscape:cy="44.497611"
   inkscape:window-x="-8"
   inkscape:window-y="-8"
   inkscape:window-maximized="1"
   inkscape:current-layer="layer2" />

<g
   id="g102">
</g>
<g
   id="g104">
</g>
<g
   id="g106">
</g>
<g
   id="g108">
</g>
<g
   id="g110">
</g>
<g
   id="g112">
</g>
<g
   id="g114">
</g>
<g
   id="g116">
</g>
<g
   id="g118">
</g>
<g
   id="g120">
</g>
<g
   id="g122">
</g>
<g
   id="g124">
</g>
<g
   id="g126">
</g>
<g
   id="g128">
</g>
<g
   id="g130">
</g>
<g
   inkscape:groupmode="layer"
   id="layer1"
   inkscape:label="background"
   style="display:none"><rect
     style="fill:#000000;stroke:#00d400;stroke-width:1.00157"
     id="rect1126"
     width="177.90085"
     height="74.125359"
     x="-6.0860825"
     y="-9.675312" /></g><g
   inkscape:groupmode="layer"
   id="layer2"
   inkscape:label="logo"
   style="display:inline"><g
     id="g100"><g
       id="g60"><path
         id="path2"
         d="m 10.4,11.1 1,1.3 0.7,-0.6 -1.7,-2.1 -0.6,0.5 C 10,10.6 9.7,11 9.3,11.3 l 0.3,0.4 z"
         fill="#ffffff" /><path
         id="path4"
         d="m 13.1,9.9 c 0.1,-0.2 0.2,-0.3 0.4,-0.4 0.3,-0.2 0.6,-0.1 0.7,0.1 0.1,0.2 0,0.5 -0.3,0.7 -0.2,0.1 -0.6,0.2 -0.7,0 l -0.8,0.4 c 0.3,0.6 1,0.5 1.7,0.1 0.8,-0.4 1.2,-1 0.9,-1.6 C 14.7,8.7 14.2,8.6 13.5,9 13.2,9 13,9.2 12.9,9.4 v 0 L 12.8,8.9 14.2,8.2 14,7.7 l -2,1 0.4,1.5 z"
         fill="#ffffff" /><path
         id="path6"
         d="M 30.3,9 C 30.1,8.9 29.8,8.8 29.6,8.9 v 0 l 0.3,-0.4 1.4,0.7 0.3,-0.5 -2.1,-1 -1,1.2 0.7,0.4 c 0.2,-0.1 0.4,0 0.6,0.1 0.3,0.2 0.4,0.4 0.3,0.7 -0.1,0.2 -0.4,0.3 -0.7,0.1 C 29.2,10 29,9.8 29.1,9.6 L 28.3,9.2 c -0.2,0.6 0.2,1.1 0.9,1.4 C 30,11 30.7,11 31,10.4 31.2,9.9 31,9.4 30.3,9 Z"
         fill="#ffffff" /><path
         id="path8"
         d="M 33.6,10.1 C 33,9.6 32.2,9.5 31.9,10 c -0.3,0.4 -0.2,1 0.4,1.5 0.2,0.2 0.6,0.3 0.8,0.3 v 0 c -0.2,0.3 -0.6,0.4 -1,0.1 -0.1,-0.1 -0.2,-0.2 -0.2,-0.2 0,-0.1 -0.1,-0.2 0,-0.3 l -0.7,-0.5 c -0.2,0.5 0,1 0.6,1.4 0.9,0.7 1.7,0.4 2.2,-0.2 0.4,-0.6 0.4,-1.4 -0.4,-2 z m -0.1,1.1 c -0.1,0.2 -0.5,0.2 -0.8,0 -0.3,-0.2 -0.3,-0.5 -0.2,-0.7 0.1,-0.2 0.5,-0.2 0.7,0 0.4,0.3 0.4,0.5 0.3,0.7 z"
         fill="#ffffff" /><path
         id="path10"
         d="M 3.6,21.2 C 4.1,21.4 4.4,20.9 4.7,20.4 5,19.9 5.2,19.4 5.4,19.5 5.6,19.6 5.5,19.8 5.5,20 5.4,20.3 5.2,20.6 5,20.5 L 4.7,21.4 C 5.3,21.6 5.8,21 6,20.3 6.2,19.6 6.3,18.8 5.7,18.6 5.2,18.4 4.9,18.9 4.6,19.4 4.3,19.9 4.1,20.4 3.9,20.3 3.7,20.2 3.7,19.9 3.8,19.6 3.9,19.2 4.1,19 4.4,19.1 L 4.7,18.2 C 4,18 3.5,18.6 3.2,19.4 3,20.1 2.9,21 3.6,21.2 Z"
         fill="#ffffff" /><path
         id="path12"
         d="m 3.3,25.9 0.1,-1 C 3.1,24.8 2.9,24.6 2.9,24.1 c 0,-0.6 0.5,-0.8 0.9,-0.8 0.4,0 0.8,0.3 0.8,0.9 0,0.4 -0.2,0.7 -0.5,0.7 l -0.1,1 c 0.7,0 1.1,-0.8 1.2,-1.6 0.1,-1.1 -0.5,-1.9 -1.3,-2 -0.8,-0.1 -1.5,0.6 -1.6,1.8 -0.1,0.9 0.3,1.7 1,1.8 z"
         fill="#ffffff" /><polygon
         id="polygon14"
         points="2.9,30.4 5.6,30 5.5,29 4.5,29.2 4.2,27.9 5.2,27.7 5.1,26.8 2.3,27.3 2.5,28.2 3.6,28 3.8,29.3 2.7,29.5 "
         fill="#ffffff" /><path
         id="path16"
         d="M 6.6,32.3 C 6.1,31.2 5.3,30.9 4.5,31.2 c -0.7,0.3 -1,1.2 -0.6,2.3 0.5,1.1 1.3,1.4 2.1,1.1 0.8,-0.3 1.1,-1.2 0.6,-2.3 z m -1,1.4 C 5.2,33.9 4.7,33.8 4.5,33.2 4.2,32.6 4.5,32.2 4.9,32.1 5.3,32 5.8,32 6,32.6 c 0.3,0.6 0,0.9 -0.4,1.1 z"
         fill="#ffffff" /><polygon
         id="polygon18"
         points="7.7,38.1 6.6,36.7 8.3,35.4 7.7,34.6 5.5,36.3 7.2,38.5 "
         fill="#ffffff" /><path
         id="path20"
         d="m 7.7,39.1 0.8,0.7 0.5,-0.3 1,0.9 -0.1,0.5 0.8,0.7 0.7,-3 -0.8,-0.6 z m 2.4,0.7 -0.6,-0.6 1,-0.5 v 0 z"
         fill="#ffffff" /><path
         id="path22"
         d="m 18.3,42.4 c 0.4,0.1 0.7,0.3 0.6,0.5 l 1,0.2 c 0.1,-0.7 -0.7,-1.2 -1.5,-1.3 -1.1,-0.2 -2,0.2 -2.1,1 -0.2,0.8 0.4,1.6 1.5,1.8 0.3,0.1 0.8,0.1 1.1,-0.1 v 0.3 l 0.6,0.1 0.3,-1.5 -1.5,-0.3 -0.1,0.5 0.7,0.1 c -0.1,0.2 -0.5,0.3 -0.9,0.2 -0.6,-0.1 -0.8,-0.6 -0.7,-1 0.1,-0.2 0.4,-0.6 1,-0.5 z"
         fill="#ffffff" /><polygon
         id="polygon24"
         points="24.4,44.9 24.4,44.3 22.3,44.4 22.3,43.9 24.1,43.8 24.1,43.2 22.3,43.3 22.3,42.8 24.3,42.7 24.2,42.1 21.2,42.3 21.4,45.1 "
         fill="#ffffff" /><polygon
         id="polygon26"
         points="27.5,41.3 28,42.9 26.2,41.7 25.3,42 26.1,44.6 27,44.3 26.5,42.7 28.2,44 29.2,43.7 28.4,41 "
         fill="#ffffff" /><polygon
         id="polygon28"
         points="33.4,41.3 33.1,40.8 31.3,41.8 31.1,41.4 32.6,40.4 32.3,39.9 30.8,40.9 30.5,40.5 32.2,39.4 31.9,38.9 29.4,40.5 30.8,42.9 "
         fill="#ffffff" /><polygon
         id="polygon30"
         points="34.3,36.8 35.2,38.7 33.2,37.8 32.5,38.5 35.3,39.7 36.1,38.9 35,36 "
         fill="#ffffff" /><polygon
         id="polygon32"
         points="39.4,34.3 38.8,33.9 37.8,35.7 37.3,35.4 38.3,33.8 37.8,33.6 36.8,35.1 36.4,34.9 37.5,33.2 37,32.9 35.4,35.4 37.8,36.9 "
         fill="#ffffff" /><polygon
         id="polygon34"
         points="38.1,29.7 39.7,30.2 37.7,30.9 37.4,31.9 40.1,32.7 40.3,31.8 38.7,31.3 40.7,30.5 41,29.6 38.3,28.8 "
         fill="#ffffff" /><path
         id="path36"
         d="m 40.5,24.7 c -0.5,0 -0.7,0.5 -0.8,1.1 -0.1,0.5 -0.2,1.1 -0.4,1.1 -0.2,0 -0.2,-0.3 -0.2,-0.5 0,-0.3 0.1,-0.6 0.4,-0.6 v -1 c -0.6,0 -0.9,0.7 -1,1.5 0,0.7 0.2,1.5 0.8,1.6 0.5,0 0.7,-0.5 0.8,-1.1 0.1,-0.5 0.2,-1.1 0.5,-1.1 0.2,0 0.3,0.3 0.3,0.6 0,0.4 -0.1,0.7 -0.5,0.7 v 1 c 0.7,0 1,-0.7 1.1,-1.6 -0.1,-0.9 -0.3,-1.7 -1,-1.7 z"
         fill="#ffffff" /><rect
         id="rect38"
         height="1"
         width="2.8"
         fill="#ffffff"
         transform="matrix(-0.9898,0.1427,-0.1427,-0.9898,82.4371,39.8587)"
         y="22.4"
         x="38.400002" /><path
         id="path40"
         d="m 38.9,21.2 c 0.5,-0.2 0.5,-0.8 0.4,-1.3 -0.1,-0.5 -0.2,-1.1 0,-1.1 0.2,-0.1 0.4,0.2 0.5,0.5 0.1,0.4 0.1,0.7 -0.2,0.8 L 40,21 c 0.7,-0.2 0.7,-1 0.4,-1.9 -0.3,-0.8 -0.7,-1.5 -1.4,-1.2 -0.5,0.2 -0.5,0.7 -0.4,1.3 0.1,0.6 0.2,1.1 0,1.1 -0.2,0.1 -0.3,-0.2 -0.4,-0.4 -0.1,-0.3 -0.1,-0.6 0.1,-0.7 L 38,18.4 c -0.6,0.2 -0.6,1 -0.4,1.7 0.3,0.6 0.7,1.3 1.3,1.1 z"
         fill="#ffffff" /><circle
         id="circle42"
         r="0.69999999"
         cy="41.900002"
         cx="13.6"
         fill="#ffffff" /><circle
         id="circle44"
         r="0.69999999"
         cy="14.7"
         cx="7.0999999"
         fill="#ffffff" /><circle
         id="circle46"
         r="0.69999999"
         cy="14.7"
         cx="36.400002"
         fill="#ffffff" /><polygon
         id="polygon48"
         points="24.2,7.9 24.2,7.5 23.7,7.5 24,7 23.7,6.6 24.2,6.6 24.2,6.2 22.9,6.2 23.4,7 22.9,7.9 "
         fill="#ffffff" /><polygon
         id="polygon50"
         points="19.5,7.9 20.6,7.9 20.6,7.5 20.3,7.5 20.3,6.6 20.6,6.6 20.6,6.2 19.5,6.2 19.5,6.6 19.8,6.6 19.8,7.5 19.5,7.5 "
         fill="#ffffff" /><polygon
         id="polygon52"
         points="22.6,6.2 22.1,6.2 22.1,6.8 21.4,6.8 21.4,6.2 20.9,6.2 20.9,7.9 21.4,7.9 21.4,7.2 22.1,7.2 22.1,7.9 22.6,7.9 "
         fill="#ffffff" /><path
         id="path54"
         d="M 21.6,5.2 C 21.6,5.1 21.7,5 21.8,5 21.9,5 22,5.1 22,5.2 v 0.6 h 0.9 V 5.3 H 22.3 V 5.2 c 0,-0.4 -0.2,-0.6 -0.6,-0.6 -0.3,0 -0.5,0.2 -0.6,0.5 0,0.1 0,0.1 0,0.2 v 0.1 h -0.6 v 0.5 h 0.9 z"
         fill="#ffffff" /><circle
         id="circle56"
         r="0.30000001"
         cy="8.6000004"
         cx="21.799999"
         fill="#ffffff" /><path
         id="path58"
         d="m 26.4,4.3 0.4,-0.5 -2.6,0.4 0.4,-2.6 -2,1.7 -0.9,-2.5 -0.9,2.5 -2,-1.7 0.4,2.6 L 16.6,3.8 17,4.3 C 7.3,6.4 0,15.1 0,25.5 0,37.5 9.8,47.2 21.7,47.2 33.6,47.2 43.4,37.4 43.4,25.5 43.5,15.1 36.2,6.4 26.4,4.3 Z M 21.8,3.7 c 1.6,0 3,1.3 3,3 0,1.6 -1.3,3 -3,3 -1.6,0 -3,-1.3 -3,-3 0,-1.6 1.3,-3 3,-3 z m 2.7,6.8 c 3.2,0.6 6.1,2.2 8.3,4.5 h -1.4 v 1 h -1.3 v -1 h -1.7 v 1.4 h -1 c 0,0 0,-2.2 0,-2.2 0,-0.5 -0.4,-0.9 -0.9,-0.9 -0.5,0 -0.9,0.4 -0.9,0.9 0,0 0,11.6 0,11.6 l -1.8,1.6 v 0.9 C 23,28.4 22.4,28.9 22,29.6 V 11.9 l 0.6,-1.7 2,1.6 z m 0.9,25 c -0.4,0.2 -0.8,0.6 -0.8,1.1 0,0.7 0.5,1.2 1.2,1.2 h 1.5 c 0.7,0 1.2,-0.5 1.2,-1.2 0,-0.5 -0.3,-0.9 -0.8,-1.1 2,-0.7 3.5,-2.6 3.5,-4.9 0,-1.2 -0.9,-2.1 -2,-2.3 v -0.9 l -1.8,-1.6 v -3.4 h 1 v 1.4 h 1.7 v -1.1 h 1.3 v 1.1 h 1.7 V 20 h -1.7 v 1 h -1.3 v -1 h -1.4 v -1.2 h 1.4 v -0.9 h 1.3 v 0.9 h 1.7 v -3.5 c 2.4,2.7 3.9,6.2 3.9,10.1 0,8.3 -6.7,15.1 -14.9,15.3 v -8.6 c 0.5,1.6 1.7,2.9 3.3,3.4 z m -2.3,-4.9 c 0,-0.6 0.4,-1 0.9,-1.1 0,0.7 0.6,1.2 1.3,1.2 h 2.5 c 0.7,0 1.2,-0.5 1.3,-1.2 0.5,0.1 0.9,0.6 0.9,1.1 0,2.1 -1.5,3.4 -3.5,3.9 -2,-0.4 -3.4,-1.7 -3.4,-3.9 z M 11.5,19.3 c -0.1,0.1 -0.1,0.2 -0.1,0.4 0,0.1 0,0.2 0.1,0.3 h -4 C 7.7,19.6 7.9,19.1 8.1,18.7 Z M 9,17 c 0.4,-0.7 0.9,-1.3 1.5,-1.9 0.3,1 0.9,1.8 1.7,2.5 -0.1,0.1 -0.2,0.2 -0.3,0.3 0,0.1 0,0.2 0,0.2 z m -1.4,5.1 c 0,0 1.9,-0.4 3.9,-0.7 0,0.1 0,0.2 0,0.3 0,0.1 0.1,0.1 0.1,0.2 l -3.9,1.5 c -0.5,0.3 -0.7,1 -0.4,1.5 0.2,0.2 0.4,0.4 0.7,0.5 0.3,0.1 0.6,0 0.8,-0.1 l 3.4,-2.1 c 0,0.1 0.1,0.2 0.1,0.3 0.1,0.1 0.1,0.1 0.2,0.1 l -3.1,2.8 c -0.4,0.5 -0.3,1.2 0.2,1.5 0.5,0.4 1.2,0.3 1.5,-0.2 l 2.5,-3.2 c 0.1,0.1 0.1,0.2 0.2,0.2 0.1,0 0.1,0 0.2,0 0,0 0,0 0,0 l -1.7,3.4 c -0.2,0.6 0.1,1.2 0.7,1.3 0.6,0.2 1.1,-0.2 1.3,-0.7 l 1,-3.4 c 0.4,0.1 0.9,0.2 1.3,0.2 0.4,0 0.6,0 1,-0.1 0,0.6 0,1.2 0,1.3 -0.1,0.1 -3.1,3.4 -3.1,3.4 -0.5,0.4 -0.7,0.5 -1.1,0.1 l -0.1,-0.1 -1,0.7 0.1,0.1 c 0.4,0.4 0.7,0.6 1.2,0.7 -0.7,0.3 -1.2,0.6 -1.3,0.7 -0.1,-0.1 -0.6,-0.6 -0.9,-0.9 0,-0.7 -0.6,-1.2 -1.3,-1.2 -0.7,0 -1.3,0.6 -1.3,1.3 v 0.1 l 0.5,0.5 v -0.4 c 0,-0.1 0,-0.2 0.1,-0.2 0.1,-0.1 0.3,-0.1 0.5,0 0,0 0.4,0.4 0.6,0.7 v 0 l 0.1,0.1 c 0.1,0.1 0.1,0.1 0.1,0.1 v 0 L 11,32.7 H 10.6 C 10.4,32.5 10,32.4 9.7,32.4 9.4,32.4 9,32.6 8.8,32.8 8.6,33 8.5,33.2 8.5,33.5 7.1,31.2 6.2,28.4 6.2,25.5 c 0,-1.2 0.1,-2.4 0.4,-3.6 0.5,0.2 0.7,0.3 1,0.2 z m 1.8,12.1 c 0,-0.1 0,-0.2 0.1,-0.3 0.1,-0.1 0.2,-0.1 0.3,-0.1 h 0.9 c -0.5,0.1 -0.9,0.4 -1.1,0.8 -0.1,-0.2 -0.2,-0.4 -0.2,-0.4 0,0 0,0 0,0 z m 1.2,1.3 c 0,-0.1 0.1,-0.2 0.1,-0.2 l 2,-1.1 0.5,0.6 v 0 l 0.1,0.1 0.1,0.1 v 0 l 0.7,0.6 c 0.1,0.1 0.1,0.3 0,0.5 -0.1,0.1 -0.1,0.1 -0.2,0.1 h -0.4 l 0.5,0.5 h 0.1 c 0.3,0 0.7,-0.1 0.9,-0.4 0.2,-0.2 0.4,-0.6 0.4,-0.9 0,-0.7 -0.5,-1.2 -1.2,-1.3 -0.2,-0.2 -0.4,-0.4 -0.5,-0.5 0.3,-0.2 5.7,-3.6 6.2,-3.9 -0.2,1.9 -1.8,4.1 -3.3,5.4 -0.7,0.7 -1,1.5 -1,2.2 0,0.6 0.2,1.1 0.5,1.4 0.3,0.3 0.7,0.4 1,0.2 l 0.2,-0.1 -0.2,-0.2 c -0.3,-0.3 -0.4,-0.7 -0.4,-1.1 0,-0.7 0.2,-1.1 0.5,-1.4 0.1,0.1 0.2,0.2 0.4,0.4 -0.1,0.4 -0.2,0.8 -0.2,1.2 0,0.8 0.3,1.5 0.7,1.9 0.1,0.1 1.1,0.9 1.5,0.8 l 0.3,-0.1 -0.3,-0.2 c -0.1,-0.1 -0.6,-0.6 -0.8,-1 -0.1,-0.3 -0.2,-0.6 -0.2,-0.9 0,-0.5 0.2,-1.2 0.7,-1.7 0,0 1.1,-2.7 1.7,-4 0,0 0,0.3 0,0.3 0,0.3 0,0.6 0,0.9 0,1.5 -0.1,2.9 -0.8,3.6 -0.2,0.4 -1,0.7 -1,0.7 l 0.2,0.2 c 0,0 0.3,0.5 0.9,0.5 0.1,0 0.2,-0.1 0.3,-0.1 0,1.2 0.3,1.7 0.7,2.1 -4.1,-0.1 -7.7,-1.8 -10.4,-4.5 l -0.3,-0.5 c 0,0 -0.1,0 0,-0.2 -0.1,0.1 0,0 0,0 z m 8.1,-21.7 0.4,-0.6 h -1.5 l 0.2,-0.6 c 0,-0.3 -0.3,-0.6 -0.6,-0.6 -0.1,0 -0.1,0 -0.2,0 0,-0.1 0,-0.1 0,-0.2 0,-0.2 -0.2,-0.4 -0.4,-0.4 -0.2,0 -0.4,0.2 -0.4,0.4 0,0 0,0.1 0,0.2 -0.1,0 -0.1,0 -0.2,0 -0.3,0 -0.6,0.3 -0.6,0.6 l 0.2,0.6 h -0.4 c -0.3,0 -0.5,0.2 -0.6,0.5 -0.1,0 -0.2,0 -0.3,0 -0.5,0 -0.9,0.4 -0.9,0.9 0,0.2 0,0.3 0.1,0.4 0.2,-0.3 0.5,-0.5 0.8,-0.5 0.3,0 0.6,0.2 0.8,0.4 0,0 0,0.1 0.1,0.1 0,0.1 0.1,0.2 0.1,0.3 h -1.9 c -0.5,0 -0.9,-0.4 -0.9,-0.9 v 0.2 0.2 0.2 c 0,0.5 0.4,0.9 0.9,0.9 h 1.8 c -0.2,0.3 -0.5,0.5 -0.8,0.5 0,0 0,0 -0.1,0 0.2,0.2 0.4,0.4 0.8,0.4 0.4,0 0.7,-0.3 0.9,-0.6 h 2.5 c 0.5,0 0.9,0.4 0.9,0.9 0,0.2 0,0.6 -0.2,0.8 l -0.2,0.4 -1.6,2.5 c -0.3,0.4 -0.9,0.5 -1.3,0.2 -0.4,-0.3 -0.5,-0.9 -0.2,-1.3 0.4,-0.2 0.5,-0.6 0.4,-1.1 -0.1,-0.5 -0.6,-0.9 -1.1,-0.9 h -0.3 c -2,0 -3.5,-1.3 -3.7,-3.3 2.1,-2 4.8,-3.4 7.8,-4 l -0.2,1.4 2,-1.6 0.7,1.8 v 2.7 z m 3,32.1 C 10.4,45.9 1.2,36.7 1.2,25.4 1.2,15.4 8.4,7.1 17.8,5.3 l 0.3,0.4 -2.5,0.9 2.5,0.9 -1.7,2 2.6,-0.4 -0.1,0.5 c -7.5,1.3 -13.3,7.8 -13.3,15.7 0,8.8 7.1,15.9 15.9,15.9 8.8,0 15.9,-7.1 15.9,-15.9 0,-7.9 -5.7,-14.4 -13.2,-15.7 L 24.1,9.1 26.6,9.5 25,7.4 27.4,6.5 25,5.5 25.3,5.2 c 9.7,2 16.9,10.3 16.9,20.3 0,11.3 -9.2,20.4 -20.5,20.4 z"
         fill="#ffffff" /></g><g
       id="g98"><path
         id="path62"
         d="m 57.1,21.3 c -4.7,0 -5.8,-2.7 -5.8,-5.7 V 5.3 h 2.9 v 10.1 c 0,2 0.6,3.4 3.1,3.4 2.2,0 3.1,-1 3.1,-3.7 V 5.3 h 2.9 v 9.6 c 0,4.3 -2.3,6.4 -6.2,6.4 z"
         fill="#ffffff" /><path
         id="path64"
         d="m 74.8,21 c 0,0 -5.6,-10.3 -6.1,-11.3 0.1,1.4 0.1,3.8 0.1,5.7 V 21 H 66 V 5.3 h 3.7 c 0,0 5.5,10 6.1,11.2 -0.1,-1.6 -0.2,-4.4 -0.2,-6.3 V 5.3 h 2.8 V 21 Z"
         fill="#ffffff" /><path
         id="path66"
         d="M 81.9,21 V 5.3 h 2.9 V 21 Z"
         fill="#ffffff" /><path
         id="path68"
         d="M 95.1,21 H 91.8 L 86.6,5.3 h 3.1 l 2.9,9.2 c 0.3,0.9 0.6,1.9 0.9,3.1 v 0 c 0.2,-1.1 0.5,-1.9 0.9,-3.3 l 2.9,-9 h 2.9 z"
         fill="#ffffff" /><path
         id="path70"
         d="M 102.3,21 V 5.3 h 8.2 v 2.5 h -5.3 v 3.9 h 5 v 2.5 h -5 v 4.3 h 5.3 V 21 Z"
         fill="#ffffff" /><path
         id="path72"
         d="m 120.7,21 -4.2,-6.5 h -0.1 V 21 h -2.9 V 5.3 c 1.2,-0.1 2.6,-0.1 4.3,-0.1 3.3,0 5.4,1.2 5.4,4.4 0,2.3 -1.5,4 -3.8,4.4 0.4,0.6 0.8,1.2 1.2,1.7 l 3.6,5.3 z M 117.6,7.7 c -0.4,0 -0.8,0 -1.1,0.1 v 4.5 c 0.2,0 0.6,0 1,0 1.7,0 2.8,-0.9 2.8,-2.4 0,-1.5 -0.9,-2.2 -2.7,-2.2 z"
         fill="#ffffff" /><path
         id="path74"
         d="m 129.2,21.3 c -1.1,0 -2.1,-0.1 -3.1,-0.4 l 0.2,-2.8 c 0.8,0.3 2,0.6 3.1,0.6 1.5,0 2.6,-0.6 2.6,-2.1 0,-3 -6.3,-1.6 -6.3,-6.8 0,-2.8 2.1,-4.7 5.7,-4.7 0.8,0 1.8,0.1 2.7,0.3 L 134,8 c -0.8,-0.3 -1.8,-0.4 -2.7,-0.4 -1.7,0 -2.5,0.8 -2.5,1.9 0,2.8 6.3,1.8 6.3,6.7 0,2.9 -2.3,5.1 -5.9,5.1 z"
         fill="#ffffff" /><path
         id="path76"
         d="M 137.4,21 V 5.3 h 2.9 V 21 Z"
         fill="#ffffff" /><path
         id="path78"
         d="M 149,7.9 V 21 h -2.9 V 7.9 h -3.9 V 5.3 h 10.6 v 2.6 z"
         fill="#ffffff" /><path
         id="path80"
         d="M 155.1,21 V 5.3 h 8.5 v 2.5 h -5.5 v 3.9 h 5.2 v 2.5 h -5.2 v 4.3 h 5.5 V 21 Z m 3.2,-16.7 -1,-1.7 4.1,-2.6 1.2,2 z"
         fill="#ffffff" /><path
         id="path82"
         d="m 55.8,46.2 c -1.6,0 -3.1,-0.1 -4.4,-0.1 V 30.4 c 1.2,0 3.1,-0.1 5.1,-0.1 4.9,0 8,2.2 8,7.7 -0.1,5.4 -3.6,8.2 -8.7,8.2 z m 0.4,-13.4 c -0.7,0 -1.4,0 -1.8,0.1 v 10.6 c 0.4,0.1 1,0.1 1.7,0.1 3,0 5.1,-1.7 5.1,-5.4 0,-3.4 -1.4,-5.4 -5,-5.4 z"
         fill="#ffffff" /><path
         id="path84"
         d="M 66.5,46.1 V 30.4 H 75 v 2.5 h -5.5 v 3.9 h 5.2 v 2.5 h -5.2 v 4.3 H 75 v 2.6 h -8.5 z"
         fill="#ffffff" /><path
         id="path86"
         d="m 96.7,33.6 c -1.3,-0.5 -2.7,-0.8 -4.2,-0.8 -3.1,0 -5.3,2 -5.3,5.5 0,3.3 1.8,5.3 5,5.3 0.7,0 1.4,-0.1 2,-0.3 v -5.5 h 3 v 7.5 c -1.6,0.6 -3.5,1 -5.4,1 -5,0 -7.9,-2.9 -7.9,-7.7 0,-4.9 3.4,-8.5 8.8,-8.5 1.6,0 3.1,0.3 4.4,0.7 z"
         fill="#ffffff" /><path
         id="path88"
         d="M 100.5,46.1 V 30.4 h 8.5 v 2.5 h -5.5 v 3.9 h 5.2 v 2.5 h -5.2 v 4.3 h 5.5 v 2.6 h -8.5 z"
         fill="#ffffff" /><path
         id="path90"
         d="m 121.3,46.1 c 0,0 -5.9,-10.3 -6.4,-11.3 0.1,1.4 0.1,3.8 0.1,5.7 v 5.6 h -2.9 V 30.4 h 3.9 c 0,0 5.8,10 6.4,11.2 -0.1,-1.6 -0.2,-4.4 -0.2,-6.3 v -4.9 h 2.9 v 15.7 z"
         fill="#ffffff" /><path
         id="path92"
         d="M 128.3,46.1 V 30.4 h 8.5 v 2.5 h -5.5 v 3.9 h 5.2 v 2.5 h -5.2 v 4.3 h 5.5 v 2.6 h -8.5 z m 5.2,-16.7 -4.3,-2.2 1.3,-2.1 4.1,2.6 z"
         fill="#ffffff" /><path
         id="path94"
         d="m 147.7,46.1 h -3.5 l -5.5,-15.7 h 3.3 l 3.1,9.2 c 0.3,0.9 0.7,1.9 0.9,3.1 v 0 c 0.2,-1.1 0.5,-1.9 0.9,-3.3 l 3.1,-9 h 3.1 z"
         fill="#ffffff" /><path
         id="path96"
         d="M 155.2,46.1 V 30.4 h 8.5 v 2.5 h -5.5 v 3.9 h 5.2 v 2.5 h -5.2 v 4.3 h 5.5 v 2.6 h -8.5 z"
         fill="#ffffff" /></g></g></g></svg>
